# xmcd
#
# Track frame offsets:
#	150
#	12042
#	25096
#	36995
#	51788
#	62619
#	75269
#	90235
#	106649
#	122460
#	134195
#	152859
#	169144
#	180143
#	194457
#	207043
#	222131
#
# Disc length: 3224 seconds
#
# Revision: 3
# Processed by: cddbd v1.5.2PL0 Copyright (c) Steve Scherf et al.
# Submitted via: EasyCDDAExtractor 15.3.0.1
#
DISCID=cd0c9611
DTITLE=Various Artist - All Time Classic Country TearJerkers-Disk 3
DYEAR=2003
DGENRE=Country
TTITLE0=Charlie Rich - Most Beautiful Girl in the World
TTITLE1=Crystal Gayle - Talking in Your Sleep
TTITLE2=Glen Campbell - I Can't Help It
TTITLE3=Dolly Parton and Tammy Wynette and Loretta Lynn - Please Help Me I'm Falli
TTITLE3=ng
TTITLE4=Waylon Jennings - Dreaming My Dreams With You
TTITLE5=Charley Pride - Crystal Chandeliers
TTITLE6=Connie Francis - He Thinks I Still Care
TTITLE7=Gram Parsons - Love Hurts
TTITLE8=Willie Nelson - Always on My Mind
TTITLE9=Everly Brothers - Let it be Me
TTITLE10=LeAnn Rimes - How do I Live
TTITLE11=Merle Haggard - Hungry Eyes
TTITLE12=Judds - Don't be Cruel
TTITLE13=Dwight Yoakam - Heartaches by the Number
TTITLE14=Patsy Cline - I Fall to Pieces
TTITLE15=Elvis Costello and the Attractions - I'm Your Toy
TTITLE16=Marty Robbins - El Paso
EXTD=
EXTT0=
EXTT1=
EXTT2=
EXTT3=
EXTT4=
EXTT5=
EXTT6=
EXTT7=
EXTT8=
EXTT9=
EXTT10=
EXTT11=
EXTT12=
EXTT13=
EXTT14=
EXTT15=
EXTT16=
PLAYORDER=
